# xmcd
#
# Track frame offsets:
#	150
#	15175
#	29162
#	53277
#
# Disc length: 1184 seconds
#
# Revision: 0
# Processed by: cddbd v1.5.2PL0 Copyright (c) Steve Scherf et al.
# Submitted via: EasyCDDAExtractor 11.9.9.666
#
DISCID=21049e04
DTITLE=Pharaohe Monch - Body Baby
DYEAR=2007
DGENRE=Hip-Hop
TTITLE0=Album Version (explicit)
TTITLE1=UK radio edit
TTITLE2=Count of Monte Cristal 1 sinden Remix
TTITLE3=An Optimo (espacio) Remix
EXTD=
EXTT0=
EXTT1=
EXTT2=
EXTT3=
PLAYORDER=
